<svg xmlns="http://www.w3.org/2000/svg" data-name="Artboard 01" fill="#fff" viewBox="0 0 64 64"><path d="M32,1A31,31,0,1,0,63,32,31.036,31.036,0,0,0,32,1ZM59.949,24.283,51,20.347V10.119A29.045,29.045,0,0,1,59.949,24.283Zm.323,14.148L50.119,42.857,44,38.486V26.515l6.118-4.37,10.39,4.569a28.712,28.712,0,0,1-.236,11.717ZM3,32a28.96,28.96,0,0,1,.492-5.286l10.39-4.569L20,26.515V38.486l-6.119,4.371L3.728,38.431A28.951,28.951,0,0,1,3,32ZM49,20.485l-6.032,4.309L33,18.451V9.578L41.569,4.63A28.931,28.931,0,0,1,49,8.527ZM32,43.86,22,38.406V26.549l10-6.363,10,6.363V38.406ZM31,18.451l-9.968,6.343L15,20.485V8.527a28.931,28.931,0,0,1,7.431-3.9L31,9.578ZM15,44.514l6.071-4.336L31,45.593v8.829L22.431,59.37A28.931,28.931,0,0,1,15,55.473Zm18,1.079,9.929-5.415L49,44.514V55.473a28.931,28.931,0,0,1-7.431,3.9L33,54.422Zm5.931-41.75L32,7.845l-6.931-4a28.914,28.914,0,0,1,13.862,0ZM13,10.119V20.347L4.051,24.283A29.045,29.045,0,0,1,13,10.119ZM4.406,40.909,13,44.655v9.226A29.071,29.071,0,0,1,4.406,40.909ZM25.069,60.157l6.931-4,6.931,4a28.914,28.914,0,0,1-13.862,0ZM51,53.881V44.655l8.594-3.746A29.071,29.071,0,0,1,51,53.881Z"/></svg>